<svg width="400" height="400" viewBox="0 0 400 400" fill="none" xmlns="http://www.w3.org/2000/svg">
<g filter="url(#filter0_d_577_366)">
<path fill-rule="evenodd" clip-rule="evenodd" d="M319.69 92.0822C313.246 91.1877 304.399 91.1593 290.86 91.1593H169.138C158.669 91.1593 151.968 91.1818 146.976 91.8026C142.326 92.3807 140.741 93.3195 139.811 94.1133C138.881 94.9072 137.713 96.3188 136.474 100.768C135.144 105.545 134.173 112.072 132.693 122.273L126.442 165.345L102.145 161.929L108.396 118.857C108.43 118.617 108.465 118.378 108.5 118.139C109.845 108.863 111.014 100.805 112.803 94.3811C114.73 87.4636 117.739 80.9763 123.73 75.8621C129.721 70.7479 136.67 68.7327 143.9 67.8338C150.614 66.999 158.883 66.9995 168.402 67C168.647 67 168.892 67.0001 169.138 67.0001L291.737 67C304.154 66.9994 314.755 66.9989 323.117 68.1597C332.019 69.3954 340.544 72.2001 346.972 79.4952C353.4 86.7902 355.015 95.4938 354.999 104.343C354.983 112.656 353.484 122.985 351.727 135.085L340.98 209.135C339.634 218.411 338.465 226.469 336.676 232.893C334.75 239.81 331.74 246.298 325.75 251.412C319.759 256.526 312.809 258.541 305.58 259.44C298.866 260.275 290.597 260.275 281.078 260.274L151.109 260.274V236.115H280.342C290.81 236.115 297.511 236.092 302.504 235.471C307.154 234.893 308.739 233.955 309.669 233.161C310.599 232.367 311.767 230.955 313.006 226.506C314.336 221.729 315.307 215.202 316.787 205.001L327.306 132.523C329.22 119.331 330.443 110.705 330.455 104.3C330.466 98.2361 329.342 96.3593 328.43 95.3243C327.518 94.2894 325.79 92.929 319.69 92.0822Z" fill="black"/>
</g>
<g filter="url(#filter1_d_577_366)">
<path fill-rule="evenodd" clip-rule="evenodd" d="M127.188 176.318C122.188 175.737 115.482 175.717 105.103 175.717H102.456C94.6524 175.717 89.6605 175.73 85.8698 176.086C82.2908 176.422 80.9554 176.983 80.2252 177.41C78.9654 178.146 77.8497 179.099 76.931 180.222C76.3986 180.873 75.6449 182.095 74.8008 185.535C73.9068 189.179 73.188 194.041 72.0844 201.645C70.6604 211.457 69.747 217.865 69.5726 222.723C69.4045 227.401 70.023 229.037 70.4639 229.831C71.3074 231.349 72.4726 232.671 73.8804 233.708C74.6164 234.25 76.1742 235.084 80.9022 235.582C85.8125 236.099 92.3865 236.115 102.456 236.115H138.835V208.921C138.835 198.704 138.815 192.103 138.225 187.181C137.666 182.526 136.746 180.97 136.054 180.138C135.541 179.523 134.969 178.959 134.344 178.455C133.499 177.773 131.918 176.868 127.188 176.318ZM130.067 152.326C137.112 153.145 143.964 154.978 149.905 159.772C151.779 161.285 153.497 162.976 155.034 164.821C159.905 170.669 161.767 177.413 162.599 184.347C163.38 190.856 163.38 198.9 163.379 208.231L163.379 260.274L101.81 260.274C92.5653 260.275 84.6644 260.275 78.2919 259.604C71.5892 258.898 64.9801 257.325 59.1786 253.053C54.9549 249.943 51.4595 245.976 48.9291 241.421C45.4532 235.163 44.806 228.501 45.0441 221.87C45.2706 215.565 46.3883 207.866 47.6961 198.857C47.7264 198.649 47.7568 198.439 47.7874 198.229C47.8131 198.051 47.8387 197.874 47.8643 197.698C48.8684 190.777 49.7413 184.761 50.9431 179.863C52.2254 174.637 54.1193 169.589 57.8116 165.074C60.5677 161.703 63.9147 158.846 67.6941 156.637C72.7573 153.677 78.1024 152.546 83.5392 152.036C88.6348 151.557 94.809 151.557 101.912 151.558L105.103 151.558C105.337 151.558 105.571 151.558 105.803 151.558C115.283 151.557 123.455 151.557 130.067 152.326Z" fill="black"/>
</g>
<g filter="url(#filter2_d_577_366)">
<path d="M261.556 296.513C261.556 309.856 250.568 320.672 237.012 320.672C223.457 320.672 212.469 309.856 212.469 296.513C212.469 283.17 223.457 272.354 237.012 272.354C250.568 272.354 261.556 283.17 261.556 296.513Z" fill="black"/>
</g>
<g filter="url(#filter3_d_577_366)">
<path d="M126.564 296.513C126.564 309.856 115.575 320.672 102.02 320.672C88.4652 320.672 77.4766 309.856 77.4766 296.513C77.4766 283.17 88.4652 272.354 102.02 272.354C115.575 272.354 126.564 283.17 126.564 296.513Z" fill="black"/>
</g>
<path d="M298.373 296.513C298.373 309.856 287.384 320.672 273.829 320.672C260.274 320.672 249.285 309.856 249.285 296.513C249.285 283.17 260.274 272.354 273.829 272.354C287.384 272.354 298.373 283.17 298.373 296.513Z" fill="black"/>
<g filter="url(#filter4_d_577_366)">
<path fill-rule="evenodd" clip-rule="evenodd" d="M310.643 296.513C310.643 316.527 294.16 332.752 273.827 332.752C253.495 332.752 237.012 316.527 237.012 296.513C237.012 276.499 253.495 260.274 273.827 260.274C294.16 260.274 310.643 276.499 310.643 296.513ZM273.827 320.673C287.382 320.673 298.371 309.856 298.371 296.513C298.371 283.17 287.382 272.354 273.827 272.354C260.272 272.354 249.284 283.17 249.284 296.513C249.284 309.856 260.272 320.673 273.827 320.673Z" fill="white"/>
</g>
<path d="M163.38 296.513C163.38 309.856 152.392 320.672 138.837 320.672C125.282 320.672 114.293 309.856 114.293 296.513C114.293 283.17 125.282 272.354 138.837 272.354C152.392 272.354 163.38 283.17 163.38 296.513Z" fill="black"/>
<g filter="url(#filter5_d_577_366)">
<path fill-rule="evenodd" clip-rule="evenodd" d="M175.655 296.513C175.655 316.527 159.172 332.752 138.839 332.752C118.506 332.752 102.023 316.527 102.023 296.513C102.023 276.499 118.506 260.274 138.839 260.274C159.172 260.274 175.655 276.499 175.655 296.513ZM138.839 320.673C152.394 320.673 163.383 309.856 163.383 296.513C163.383 283.17 152.394 272.354 138.839 272.354C125.284 272.354 114.295 283.17 114.295 296.513C114.295 309.856 125.284 320.673 138.839 320.673Z" fill="white"/>
</g>
<defs>
<filter id="filter0_d_577_366" x="102.145" y="67" width="267.855" height="200.274" filterUnits="userSpaceOnUse" color-interpolation-filters="sRGB">
<feFlood flood-opacity="0" result="BackgroundImageFix"/>
<feColorMatrix in="SourceAlpha" type="matrix" values="0 0 0 0 0 0 0 0 0 0 0 0 0 0 0 0 0 0 127 0" result="hardAlpha"/>
<feOffset dx="15" dy="7"/>
<feComposite in2="hardAlpha" operator="out"/>
<feColorMatrix type="matrix" values="0 0 0 0 0.862745 0 0 0 0 0.176471 0 0 0 0 0.490196 0 0 0 1 0"/>
<feBlend mode="normal" in2="BackgroundImageFix" result="effect1_dropShadow_577_366"/>
<feBlend mode="normal" in="SourceGraphic" in2="effect1_dropShadow_577_366" result="shape"/>
</filter>
<filter id="filter1_d_577_366" x="45" y="151.558" width="133.379" height="115.717" filterUnits="userSpaceOnUse" color-interpolation-filters="sRGB">
<feFlood flood-opacity="0" result="BackgroundImageFix"/>
<feColorMatrix in="SourceAlpha" type="matrix" values="0 0 0 0 0 0 0 0 0 0 0 0 0 0 0 0 0 0 127 0" result="hardAlpha"/>
<feOffset dx="15" dy="7"/>
<feComposite in2="hardAlpha" operator="out"/>
<feColorMatrix type="matrix" values="0 0 0 0 0.862745 0 0 0 0 0.176471 0 0 0 0 0.490196 0 0 0 1 0"/>
<feBlend mode="normal" in2="BackgroundImageFix" result="effect1_dropShadow_577_366"/>
<feBlend mode="normal" in="SourceGraphic" in2="effect1_dropShadow_577_366" result="shape"/>
</filter>
<filter id="filter2_d_577_366" x="212.469" y="272.354" width="64.0859" height="55.3184" filterUnits="userSpaceOnUse" color-interpolation-filters="sRGB">
<feFlood flood-opacity="0" result="BackgroundImageFix"/>
<feColorMatrix in="SourceAlpha" type="matrix" values="0 0 0 0 0 0 0 0 0 0 0 0 0 0 0 0 0 0 127 0" result="hardAlpha"/>
<feOffset dx="15" dy="7"/>
<feComposite in2="hardAlpha" operator="out"/>
<feColorMatrix type="matrix" values="0 0 0 0 0.862745 0 0 0 0 0.176471 0 0 0 0 0.490196 0 0 0 1 0"/>
<feBlend mode="normal" in2="BackgroundImageFix" result="effect1_dropShadow_577_366"/>
<feBlend mode="normal" in="SourceGraphic" in2="effect1_dropShadow_577_366" result="shape"/>
</filter>
<filter id="filter3_d_577_366" x="77.4766" y="272.354" width="64.0859" height="55.3184" filterUnits="userSpaceOnUse" color-interpolation-filters="sRGB">
<feFlood flood-opacity="0" result="BackgroundImageFix"/>
<feColorMatrix in="SourceAlpha" type="matrix" values="0 0 0 0 0 0 0 0 0 0 0 0 0 0 0 0 0 0 127 0" result="hardAlpha"/>
<feOffset dx="15" dy="7"/>
<feComposite in2="hardAlpha" operator="out"/>
<feColorMatrix type="matrix" values="0 0 0 0 0.862745 0 0 0 0 0.176471 0 0 0 0 0.490196 0 0 0 1 0"/>
<feBlend mode="normal" in2="BackgroundImageFix" result="effect1_dropShadow_577_366"/>
<feBlend mode="normal" in="SourceGraphic" in2="effect1_dropShadow_577_366" result="shape"/>
</filter>
<filter id="filter4_d_577_366" x="237.012" y="260.274" width="88.6328" height="79.4775" filterUnits="userSpaceOnUse" color-interpolation-filters="sRGB">
<feFlood flood-opacity="0" result="BackgroundImageFix"/>
<feColorMatrix in="SourceAlpha" type="matrix" values="0 0 0 0 0 0 0 0 0 0 0 0 0 0 0 0 0 0 127 0" result="hardAlpha"/>
<feOffset dx="15" dy="7"/>
<feComposite in2="hardAlpha" operator="out"/>
<feColorMatrix type="matrix" values="0 0 0 0 0.862745 0 0 0 0 0.176471 0 0 0 0 0.490196 0 0 0 1 0"/>
<feBlend mode="normal" in2="BackgroundImageFix" result="effect1_dropShadow_577_366"/>
<feBlend mode="normal" in="SourceGraphic" in2="effect1_dropShadow_577_366" result="shape"/>
</filter>
<filter id="filter5_d_577_366" x="102.023" y="260.274" width="88.6328" height="79.4775" filterUnits="userSpaceOnUse" color-interpolation-filters="sRGB">
<feFlood flood-opacity="0" result="BackgroundImageFix"/>
<feColorMatrix in="SourceAlpha" type="matrix" values="0 0 0 0 0 0 0 0 0 0 0 0 0 0 0 0 0 0 127 0" result="hardAlpha"/>
<feOffset dx="15" dy="7"/>
<feComposite in2="hardAlpha" operator="out"/>
<feColorMatrix type="matrix" values="0 0 0 0 0.862745 0 0 0 0 0.176471 0 0 0 0 0.490196 0 0 0 1 0"/>
<feBlend mode="normal" in2="BackgroundImageFix" result="effect1_dropShadow_577_366"/>
<feBlend mode="normal" in="SourceGraphic" in2="effect1_dropShadow_577_366" result="shape"/>
</filter>
</defs>
</svg>
