<svg width="289" height="271" viewBox="0 0 289 271" fill="none" xmlns="http://www.w3.org/2000/svg">
<g filter="url(#filter0_d_577_333)">
<path fill-rule="evenodd" clip-rule="evenodd" d="M234.018 2.44457e-05C234.229 3.63666e-05 234.441 4.82875e-05 234.653 4.82875e-05H262.503C269.407 4.82875e-05 275.003 5.59649 275.003 12.5C275.003 19.4036 269.407 25 262.503 25H234.653C225.993 25 220.521 25.018 216.379 25.4796C212.549 25.9065 211.103 26.606 210.208 27.226C209.314 27.846 208.151 28.9544 206.407 32.3907C204.52 36.1067 202.582 41.2242 199.541 49.3329L192.958 66.8891C190.534 73.3531 183.328 76.6282 176.864 74.2042C170.4 71.7802 167.125 64.575 169.549 58.111L176.133 40.5548C176.207 40.3558 176.282 40.1575 176.356 39.9598C179.107 32.6221 181.522 26.18 184.115 21.0739C186.919 15.5505 190.439 10.5097 195.969 6.67784C201.498 2.84596 207.454 1.31955 213.61 0.633446C219.301 -0.00083535 226.181 -0.00043302 234.018 2.44457e-05Z" fill="black"/>
</g>
<g filter="url(#filter1_d_577_333)">
<path fill-rule="evenodd" clip-rule="evenodd" d="M206.767 75.5168C203.463 75.0323 198.625 75.0002 190.307 75.0002H82.2444C71.269 75.0002 64.2293 75.0242 58.9967 75.6951C54.117 76.3208 52.4821 77.3355 51.5318 78.1861C50.5815 79.0366 49.3925 80.5495 48.2317 85.3303C46.9871 90.4567 46.1858 97.4507 44.9738 108.359L43.5849 120.859C42.1041 134.186 41.1675 142.876 41.349 149.318C41.5204 155.402 42.6735 157.291 43.6098 158.337C44.5461 159.383 46.2955 160.737 52.3235 161.58C58.7059 162.471 67.4468 162.5 80.8555 162.5H151.454C160.439 162.5 166.127 162.481 170.422 161.991C174.397 161.537 175.875 160.795 176.782 160.141C177.689 159.487 178.861 158.32 180.549 154.692C182.372 150.773 184.189 145.382 187.03 136.859L202.165 91.453C204.796 83.5619 206.295 78.9613 206.88 75.6741C206.889 75.6276 206.897 75.582 206.904 75.5373C206.859 75.5305 206.814 75.5236 206.767 75.5168ZM210.394 50.7814C216.231 51.6373 223.175 53.7847 227.93 60.3824C232.686 66.9801 232.527 74.2469 231.493 80.0547C230.547 85.3708 228.421 91.7474 226.143 98.577C226.056 98.8369 225.969 99.0975 225.882 99.3587L210.54 145.386C207.968 153.104 205.713 159.87 203.216 165.237C200.517 171.039 197.04 176.357 191.4 180.422C185.76 184.487 179.616 186.104 173.258 186.83C167.376 187.501 160.245 187.501 152.109 187.5H79.9778C67.6929 187.501 57.183 187.501 48.864 186.339C39.9931 185.1 31.4982 182.291 24.9816 175.01C18.4649 167.729 16.6112 158.976 16.3589 150.022C16.1223 141.626 17.2835 131.18 18.6408 118.971C18.673 118.681 18.7053 118.39 18.7378 118.098L20.1267 105.598C20.155 105.344 20.1831 105.09 20.2112 104.837C21.3136 94.91 22.2696 86.3015 23.9376 79.4317C25.7319 72.0413 28.6901 65.0791 34.8588 59.5579C41.0275 54.0366 48.2737 51.8654 55.8171 50.8982C62.829 49.9991 71.4905 49.9996 81.4783 50.0001C81.7328 50.0002 81.9882 50.0002 82.2444 50.0002H190.307C190.582 50.0002 190.857 50.0001 191.132 50.0001C198.331 49.999 205.052 49.9979 210.394 50.7814Z" fill="black"/>
</g>
<g filter="url(#filter2_d_577_333)">
<path d="M187.5 225C187.5 238.807 176.307 250 162.5 250C148.693 250 137.5 238.807 137.5 225C137.5 211.193 148.693 200 162.5 200C176.307 200 187.5 211.193 187.5 225Z" fill="black"/>
</g>
<g filter="url(#filter3_d_577_333)">
<path d="M50 225C50 238.807 38.8071 250 25 250C11.1929 250 0 238.807 0 225C0 211.193 11.1929 200 25 200C38.8071 200 50 211.193 50 225Z" fill="black"/>
</g>
<path d="M225 225C225 238.807 213.807 250 200 250C186.193 250 175 238.807 175 225C175 211.193 186.193 200 200 200C213.807 200 225 211.193 225 225Z" fill="black"/>
<g filter="url(#filter4_d_577_333)">
<path fill-rule="evenodd" clip-rule="evenodd" d="M237.5 225C237.5 245.711 220.711 262.5 200 262.5C179.289 262.5 162.5 245.711 162.5 225C162.5 204.289 179.289 187.5 200 187.5C220.711 187.5 237.5 204.289 237.5 225ZM200 250C213.807 250 225 238.807 225 225C225 211.193 213.807 200 200 200C186.193 200 175 211.193 175 225C175 238.807 186.193 250 200 250Z" fill="white"/>
</g>
<path d="M87.5 225C87.5 238.807 76.3071 250 62.5 250C48.6929 250 37.5 238.807 37.5 225C37.5 211.193 48.6929 200 62.5 200C76.3071 200 87.5 211.193 87.5 225Z" fill="black"/>
<g filter="url(#filter5_d_577_333)">
<path fill-rule="evenodd" clip-rule="evenodd" d="M100 225C100 245.711 83.2107 262.5 62.5 262.5C41.7893 262.5 25 245.711 25 225C25 204.289 41.7893 187.5 62.5 187.5C83.2107 187.5 100 204.289 100 225ZM62.5 250C76.3071 250 87.5 238.807 87.5 225C87.5 211.193 76.3071 200 62.5 200C48.6929 200 37.5 211.193 37.5 225C37.5 238.807 48.6929 250 62.5 250Z" fill="white"/>
</g>
<defs>
<filter id="filter0_d_577_333" x="168.75" y="0" width="119.254" height="83.0039" filterUnits="userSpaceOnUse" color-interpolation-filters="sRGB">
<feFlood flood-opacity="0" result="BackgroundImageFix"/>
<feColorMatrix in="SourceAlpha" type="matrix" values="0 0 0 0 0 0 0 0 0 0 0 0 0 0 0 0 0 0 127 0" result="hardAlpha"/>
<feOffset dx="13" dy="8"/>
<feComposite in2="hardAlpha" operator="out"/>
<feColorMatrix type="matrix" values="0 0 0 0 0.862745 0 0 0 0 0.176471 0 0 0 0 0.490196 0 0 0 1 0"/>
<feBlend mode="normal" in2="BackgroundImageFix" result="effect1_dropShadow_577_333"/>
<feBlend mode="normal" in="SourceGraphic" in2="effect1_dropShadow_577_333" result="shape"/>
</filter>
<filter id="filter1_d_577_333" x="16.3281" y="50" width="228.758" height="145.5" filterUnits="userSpaceOnUse" color-interpolation-filters="sRGB">
<feFlood flood-opacity="0" result="BackgroundImageFix"/>
<feColorMatrix in="SourceAlpha" type="matrix" values="0 0 0 0 0 0 0 0 0 0 0 0 0 0 0 0 0 0 127 0" result="hardAlpha"/>
<feOffset dx="13" dy="8"/>
<feComposite in2="hardAlpha" operator="out"/>
<feColorMatrix type="matrix" values="0 0 0 0 0.862745 0 0 0 0 0.176471 0 0 0 0 0.490196 0 0 0 1 0"/>
<feBlend mode="normal" in2="BackgroundImageFix" result="effect1_dropShadow_577_333"/>
<feBlend mode="normal" in="SourceGraphic" in2="effect1_dropShadow_577_333" result="shape"/>
</filter>
<filter id="filter2_d_577_333" x="137.5" y="200" width="63" height="58" filterUnits="userSpaceOnUse" color-interpolation-filters="sRGB">
<feFlood flood-opacity="0" result="BackgroundImageFix"/>
<feColorMatrix in="SourceAlpha" type="matrix" values="0 0 0 0 0 0 0 0 0 0 0 0 0 0 0 0 0 0 127 0" result="hardAlpha"/>
<feOffset dx="13" dy="8"/>
<feComposite in2="hardAlpha" operator="out"/>
<feColorMatrix type="matrix" values="0 0 0 0 0.862745 0 0 0 0 0.176471 0 0 0 0 0.490196 0 0 0 1 0"/>
<feBlend mode="normal" in2="BackgroundImageFix" result="effect1_dropShadow_577_333"/>
<feBlend mode="normal" in="SourceGraphic" in2="effect1_dropShadow_577_333" result="shape"/>
</filter>
<filter id="filter3_d_577_333" x="0" y="200" width="63" height="58" filterUnits="userSpaceOnUse" color-interpolation-filters="sRGB">
<feFlood flood-opacity="0" result="BackgroundImageFix"/>
<feColorMatrix in="SourceAlpha" type="matrix" values="0 0 0 0 0 0 0 0 0 0 0 0 0 0 0 0 0 0 127 0" result="hardAlpha"/>
<feOffset dx="13" dy="8"/>
<feComposite in2="hardAlpha" operator="out"/>
<feColorMatrix type="matrix" values="0 0 0 0 0.862745 0 0 0 0 0.176471 0 0 0 0 0.490196 0 0 0 1 0"/>
<feBlend mode="normal" in2="BackgroundImageFix" result="effect1_dropShadow_577_333"/>
<feBlend mode="normal" in="SourceGraphic" in2="effect1_dropShadow_577_333" result="shape"/>
</filter>
<filter id="filter4_d_577_333" x="162.5" y="187.5" width="88" height="83" filterUnits="userSpaceOnUse" color-interpolation-filters="sRGB">
<feFlood flood-opacity="0" result="BackgroundImageFix"/>
<feColorMatrix in="SourceAlpha" type="matrix" values="0 0 0 0 0 0 0 0 0 0 0 0 0 0 0 0 0 0 127 0" result="hardAlpha"/>
<feOffset dx="13" dy="8"/>
<feComposite in2="hardAlpha" operator="out"/>
<feColorMatrix type="matrix" values="0 0 0 0 0.862745 0 0 0 0 0.176471 0 0 0 0 0.490196 0 0 0 1 0"/>
<feBlend mode="normal" in2="BackgroundImageFix" result="effect1_dropShadow_577_333"/>
<feBlend mode="normal" in="SourceGraphic" in2="effect1_dropShadow_577_333" result="shape"/>
</filter>
<filter id="filter5_d_577_333" x="25" y="187.5" width="88" height="83" filterUnits="userSpaceOnUse" color-interpolation-filters="sRGB">
<feFlood flood-opacity="0" result="BackgroundImageFix"/>
<feColorMatrix in="SourceAlpha" type="matrix" values="0 0 0 0 0 0 0 0 0 0 0 0 0 0 0 0 0 0 127 0" result="hardAlpha"/>
<feOffset dx="13" dy="8"/>
<feComposite in2="hardAlpha" operator="out"/>
<feColorMatrix type="matrix" values="0 0 0 0 0.862745 0 0 0 0 0.176471 0 0 0 0 0.490196 0 0 0 1 0"/>
<feBlend mode="normal" in2="BackgroundImageFix" result="effect1_dropShadow_577_333"/>
<feBlend mode="normal" in="SourceGraphic" in2="effect1_dropShadow_577_333" result="shape"/>
</filter>
</defs>
</svg>
