<svg width="400" height="400" viewBox="0 0 400 400" fill="none" xmlns="http://www.w3.org/2000/svg">
<g filter="url(#filter0_d_577_364)">
<path fill-rule="evenodd" clip-rule="evenodd" d="M296.018 69C296.229 69 296.441 69 296.653 69H324.503C331.407 69 337.003 74.5965 337.003 81.5C337.003 88.4036 331.407 94 324.503 94H296.653C287.993 94 282.521 94.018 278.379 94.4796C274.549 94.9065 273.103 95.606 272.208 96.226C271.314 96.846 270.151 97.9544 268.407 101.391C266.52 105.107 264.582 110.224 261.541 118.333L254.958 135.889C252.534 142.353 245.328 145.628 238.864 143.204C232.4 140.78 229.125 133.575 231.549 127.111L238.133 109.555C238.207 109.356 238.282 109.157 238.356 108.96C241.107 101.622 243.522 95.18 246.115 90.0739C248.919 84.5505 252.439 79.5097 257.969 75.6778C263.498 71.846 269.454 70.3196 275.61 69.6334C281.301 68.9992 288.181 68.9996 296.018 69Z" fill="black"/>
</g>
<g filter="url(#filter1_d_577_364)">
<path fill-rule="evenodd" clip-rule="evenodd" d="M268.767 144.517C265.463 144.032 260.625 144 252.307 144H144.244C133.269 144 126.229 144.024 120.997 144.695C116.117 145.321 114.482 146.336 113.532 147.186C112.582 148.037 111.392 149.549 110.232 154.33C108.987 159.457 108.186 166.451 106.974 177.359L105.585 189.859C104.104 203.186 103.168 211.876 103.349 218.318C103.52 224.402 104.673 226.291 105.61 227.337C106.546 228.383 108.296 229.737 114.324 230.58C120.706 231.471 129.447 231.5 142.856 231.5H213.454C222.439 231.5 228.127 231.481 232.422 230.991C236.397 230.537 237.875 229.795 238.782 229.141C239.689 228.487 240.861 227.32 242.549 223.692C244.372 219.773 246.189 214.382 249.03 205.859L264.165 160.453C266.796 152.562 268.295 147.961 268.88 144.674C268.889 144.628 268.896 144.582 268.904 144.537C268.859 144.53 268.814 144.524 268.767 144.517ZM272.394 119.781C278.231 120.637 285.175 122.785 289.93 129.382C294.686 135.98 294.527 143.247 293.493 149.055C292.547 154.371 290.421 160.747 288.143 167.577C288.056 167.837 287.969 168.098 287.882 168.359L272.54 214.386C269.968 222.104 267.713 228.87 265.216 234.237C262.517 240.039 259.04 245.357 253.4 249.422C247.76 253.487 241.616 255.104 235.258 255.83C229.376 256.501 222.245 256.501 214.109 256.5H141.978C129.693 256.501 119.183 256.501 110.864 255.339C101.993 254.1 93.4982 251.291 86.9816 244.01C80.4649 236.729 78.6112 227.976 78.3589 219.022C78.1223 210.626 79.2835 200.18 80.6408 187.971C80.673 187.681 80.7053 187.39 80.7378 187.098L82.1267 174.598C82.155 174.344 82.1831 174.09 82.2112 173.837C83.3136 163.91 84.2696 155.301 85.9376 148.432C87.7319 141.041 90.6901 134.079 96.8588 128.558C103.027 123.037 110.274 120.865 117.817 119.898C124.829 118.999 133.491 119 143.478 119C143.733 119 143.988 119 144.244 119H252.307C252.582 119 252.857 119 253.132 119C260.331 118.999 267.052 118.998 272.394 119.781Z" fill="black"/>
</g>
<g filter="url(#filter2_d_577_364)">
<path d="M249.5 294C249.5 307.807 238.307 319 224.5 319C210.693 319 199.5 307.807 199.5 294C199.5 280.193 210.693 269 224.5 269C238.307 269 249.5 280.193 249.5 294Z" fill="black"/>
</g>
<g filter="url(#filter3_d_577_364)">
<path d="M112 294C112 307.807 100.807 319 87 319C73.1929 319 62 307.807 62 294C62 280.193 73.1929 269 87 269C100.807 269 112 280.193 112 294Z" fill="black"/>
</g>
<path d="M287 294C287 307.807 275.807 319 262 319C248.193 319 237 307.807 237 294C237 280.193 248.193 269 262 269C275.807 269 287 280.193 287 294Z" fill="black"/>
<g filter="url(#filter4_d_577_364)">
<path fill-rule="evenodd" clip-rule="evenodd" d="M299.5 294C299.5 314.711 282.711 331.5 262 331.5C241.289 331.5 224.5 314.711 224.5 294C224.5 273.289 241.289 256.5 262 256.5C282.711 256.5 299.5 273.289 299.5 294ZM262 319C275.807 319 287 307.807 287 294C287 280.193 275.807 269 262 269C248.193 269 237 280.193 237 294C237 307.807 248.193 319 262 319Z" fill="white"/>
</g>
<path d="M149.5 294C149.5 307.807 138.307 319 124.5 319C110.693 319 99.5 307.807 99.5 294C99.5 280.193 110.693 269 124.5 269C138.307 269 149.5 280.193 149.5 294Z" fill="black"/>
<g filter="url(#filter5_d_577_364)">
<path fill-rule="evenodd" clip-rule="evenodd" d="M162 294C162 314.711 145.211 331.5 124.5 331.5C103.789 331.5 87 314.711 87 294C87 273.289 103.789 256.5 124.5 256.5C145.211 256.5 162 273.289 162 294ZM124.5 319C138.307 319 149.5 307.807 149.5 294C149.5 280.193 138.307 269 124.5 269C110.693 269 99.5 280.193 99.5 294C99.5 307.807 110.693 319 124.5 319Z" fill="white"/>
</g>
<defs>
<filter id="filter0_d_577_364" x="230.75" y="69" width="119.254" height="83.0039" filterUnits="userSpaceOnUse" color-interpolation-filters="sRGB">
<feFlood flood-opacity="0" result="BackgroundImageFix"/>
<feColorMatrix in="SourceAlpha" type="matrix" values="0 0 0 0 0 0 0 0 0 0 0 0 0 0 0 0 0 0 127 0" result="hardAlpha"/>
<feOffset dx="13" dy="8"/>
<feComposite in2="hardAlpha" operator="out"/>
<feColorMatrix type="matrix" values="0 0 0 0 0.862745 0 0 0 0 0.176471 0 0 0 0 0.490196 0 0 0 1 0"/>
<feBlend mode="normal" in2="BackgroundImageFix" result="effect1_dropShadow_577_364"/>
<feBlend mode="normal" in="SourceGraphic" in2="effect1_dropShadow_577_364" result="shape"/>
</filter>
<filter id="filter1_d_577_364" x="78.3281" y="119" width="228.758" height="145.5" filterUnits="userSpaceOnUse" color-interpolation-filters="sRGB">
<feFlood flood-opacity="0" result="BackgroundImageFix"/>
<feColorMatrix in="SourceAlpha" type="matrix" values="0 0 0 0 0 0 0 0 0 0 0 0 0 0 0 0 0 0 127 0" result="hardAlpha"/>
<feOffset dx="13" dy="8"/>
<feComposite in2="hardAlpha" operator="out"/>
<feColorMatrix type="matrix" values="0 0 0 0 0.862745 0 0 0 0 0.176471 0 0 0 0 0.490196 0 0 0 1 0"/>
<feBlend mode="normal" in2="BackgroundImageFix" result="effect1_dropShadow_577_364"/>
<feBlend mode="normal" in="SourceGraphic" in2="effect1_dropShadow_577_364" result="shape"/>
</filter>
<filter id="filter2_d_577_364" x="199.5" y="269" width="63" height="58" filterUnits="userSpaceOnUse" color-interpolation-filters="sRGB">
<feFlood flood-opacity="0" result="BackgroundImageFix"/>
<feColorMatrix in="SourceAlpha" type="matrix" values="0 0 0 0 0 0 0 0 0 0 0 0 0 0 0 0 0 0 127 0" result="hardAlpha"/>
<feOffset dx="13" dy="8"/>
<feComposite in2="hardAlpha" operator="out"/>
<feColorMatrix type="matrix" values="0 0 0 0 0.862745 0 0 0 0 0.176471 0 0 0 0 0.490196 0 0 0 1 0"/>
<feBlend mode="normal" in2="BackgroundImageFix" result="effect1_dropShadow_577_364"/>
<feBlend mode="normal" in="SourceGraphic" in2="effect1_dropShadow_577_364" result="shape"/>
</filter>
<filter id="filter3_d_577_364" x="62" y="269" width="63" height="58" filterUnits="userSpaceOnUse" color-interpolation-filters="sRGB">
<feFlood flood-opacity="0" result="BackgroundImageFix"/>
<feColorMatrix in="SourceAlpha" type="matrix" values="0 0 0 0 0 0 0 0 0 0 0 0 0 0 0 0 0 0 127 0" result="hardAlpha"/>
<feOffset dx="13" dy="8"/>
<feComposite in2="hardAlpha" operator="out"/>
<feColorMatrix type="matrix" values="0 0 0 0 0.862745 0 0 0 0 0.176471 0 0 0 0 0.490196 0 0 0 1 0"/>
<feBlend mode="normal" in2="BackgroundImageFix" result="effect1_dropShadow_577_364"/>
<feBlend mode="normal" in="SourceGraphic" in2="effect1_dropShadow_577_364" result="shape"/>
</filter>
<filter id="filter4_d_577_364" x="224.5" y="256.5" width="88" height="83" filterUnits="userSpaceOnUse" color-interpolation-filters="sRGB">
<feFlood flood-opacity="0" result="BackgroundImageFix"/>
<feColorMatrix in="SourceAlpha" type="matrix" values="0 0 0 0 0 0 0 0 0 0 0 0 0 0 0 0 0 0 127 0" result="hardAlpha"/>
<feOffset dx="13" dy="8"/>
<feComposite in2="hardAlpha" operator="out"/>
<feColorMatrix type="matrix" values="0 0 0 0 0.862745 0 0 0 0 0.176471 0 0 0 0 0.490196 0 0 0 1 0"/>
<feBlend mode="normal" in2="BackgroundImageFix" result="effect1_dropShadow_577_364"/>
<feBlend mode="normal" in="SourceGraphic" in2="effect1_dropShadow_577_364" result="shape"/>
</filter>
<filter id="filter5_d_577_364" x="87" y="256.5" width="88" height="83" filterUnits="userSpaceOnUse" color-interpolation-filters="sRGB">
<feFlood flood-opacity="0" result="BackgroundImageFix"/>
<feColorMatrix in="SourceAlpha" type="matrix" values="0 0 0 0 0 0 0 0 0 0 0 0 0 0 0 0 0 0 127 0" result="hardAlpha"/>
<feOffset dx="13" dy="8"/>
<feComposite in2="hardAlpha" operator="out"/>
<feColorMatrix type="matrix" values="0 0 0 0 0.862745 0 0 0 0 0.176471 0 0 0 0 0.490196 0 0 0 1 0"/>
<feBlend mode="normal" in2="BackgroundImageFix" result="effect1_dropShadow_577_364"/>
<feBlend mode="normal" in="SourceGraphic" in2="effect1_dropShadow_577_364" result="shape"/>
</filter>
</defs>
</svg>
