<svg width="29" height="29" viewBox="0 0 29 29" fill="none" xmlns="http://www.w3.org/2000/svg">
<path d="M0.61668 14.326C0.616 16.7626 1.25762 19.1417 2.47766 21.2387L0.5 28.4035L7.88956 26.481C9.93342 27.585 12.2234 28.1635 14.5505 28.1636H14.5566C22.2388 28.1636 28.4922 21.9609 28.4955 14.3369C28.497 10.6426 27.0484 7.16865 24.4164 4.55505C21.7849 1.94168 18.285 0.501686 14.5561 0.5C6.87298 0.5 0.619965 6.7024 0.616793 14.326" fill="black"/>
<path d="M0.121211 14.322C0.120418 16.8462 0.785039 19.3104 2.04858 21.4825L0 28.9041L7.65453 26.9127C9.7636 28.0537 12.1382 28.6553 14.5545 28.6562H14.5607C22.5185 28.6562 28.9966 22.2303 29 14.3334C29.0014 10.5063 27.5006 6.90751 24.7746 4.20028C22.0483 1.49339 18.4233 0.00157364 14.5607 0C6.60158 0 0.124383 6.42496 0.121211 14.322ZM4.67965 21.1084L4.39384 20.6582C3.19238 18.7627 2.55823 16.5722 2.55914 14.3229C2.56174 7.75907 7.94532 2.41891 14.5653 2.41891C17.7711 2.42026 20.7839 3.66029 23.05 5.91016C25.316 8.16024 26.5629 11.1513 26.5621 14.3325C26.5591 20.8963 21.1754 26.2371 14.5607 26.2371H14.556C12.4021 26.236 10.2898 25.6621 8.44761 24.5775L8.00921 24.3195L3.46686 25.5012L4.67965 21.1083V21.1084Z" fill="#DC2D7D"/>
<path d="M10.9546 8.33489C10.6844 7.73882 10.3999 7.72679 10.1429 7.71634C9.9324 7.70734 9.69179 7.70802 9.45141 7.70802C9.2108 7.70802 8.81986 7.79783 8.48942 8.15583C8.15864 8.51417 7.22656 9.38013 7.22656 11.1414C7.22656 12.9027 8.51944 14.6048 8.69967 14.8439C8.88013 15.0826 11.1956 18.8125 14.8627 20.2475C17.9105 21.44 18.5307 21.2028 19.1921 21.143C19.8537 21.0834 21.3268 20.2773 21.6273 19.4413C21.9281 18.6055 21.9281 17.889 21.8379 17.7393C21.7477 17.5902 21.5071 17.5006 21.1463 17.3216C20.7854 17.1426 19.0117 16.2765 18.681 16.157C18.3502 16.0377 18.1097 15.9781 17.8691 16.3365C17.6285 16.6944 16.9376 17.5006 16.727 17.7393C16.5166 17.9786 16.3061 18.0084 15.9454 17.8294C15.5843 17.6497 14.4224 17.2722 13.0439 16.0527C11.9713 15.1038 11.2473 13.932 11.0368 13.5736C10.8263 13.2157 11.0142 13.0217 11.1951 12.8433C11.3573 12.6829 11.5561 12.4252 11.7366 12.2163C11.9165 12.0072 11.9766 11.8581 12.0969 11.6193C12.2173 11.3803 12.157 11.1713 12.067 10.9922C11.9766 10.8132 11.2755 9.04281 10.9546 8.335" fill="#DC2D7D"/>
</svg>
