<svg width="400" height="400" viewBox="0 0 400 400" fill="none" xmlns="http://www.w3.org/2000/svg">
<g filter="url(#filter0_d_577_365)">
<path d="M83.0667 68C79.0707 68 75.2385 69.5874 72.4129 72.4129C69.5874 75.2385 68 79.0707 68 83.0667V143.333H143.333V68H83.0667ZM124.5 124.5H86.8333V86.8333H124.5V124.5Z" fill="black"/>
<path d="M68 316.6C68 320.596 69.5874 324.428 72.4129 327.253C75.2385 330.079 79.0707 331.666 83.0667 331.666H143.333V256.333H68V316.6ZM86.8333 275.166H124.5V312.833H86.8333V275.166Z" fill="black"/>
<path d="M256.332 331.666H316.599C320.595 331.666 324.427 330.079 327.252 327.253C330.078 324.428 331.665 320.596 331.665 316.6V256.333H256.332V331.666ZM275.165 275.166H312.832V312.833H275.165V275.166Z" fill="black"/>
<path d="M316.599 68H256.332V143.333H331.665V83.0667C331.665 79.0707 330.078 75.2385 327.252 72.4129C324.427 69.5874 320.595 68 316.599 68ZM312.832 124.5H275.165V86.8333H312.832V124.5Z" fill="black"/>
<path d="M218.667 124.499V105.666H181V143.333H199.833V124.499H218.667Z" fill="black"/>
<path d="M143.332 143.333H162.165V162.166H143.332V143.333Z" fill="black"/>
<path d="M162.164 162.166H199.831V180.999H162.164V162.166Z" fill="black"/>
<path d="M218.664 86.8333V105.667H237.497V68H162.164V105.667H180.997V86.8333H218.664Z" fill="black"/>
<path d="M68 162.166H86.8333V199.833H68V162.166Z" fill="black"/>
<path d="M143.333 180.999V199.833H124.5V162.166H105.667V199.833H86.8333V218.666H68V237.499H105.667V218.666H124.5V237.499H143.333V218.666H162.167V180.999H143.333Z" fill="black"/>
<path d="M218.665 181H237.499V199.833H256.332V181H275.165V162.167H237.499V124.5H218.665V143.333H199.832V162.167H218.665V181Z" fill="black"/>
<path d="M199.831 312.833H162.164V331.667H237.497V312.833H218.664V294H199.831V312.833Z" fill="black"/>
<path d="M237.5 218.667V199.833H218.667V181H199.833V199.833H181V218.667H199.833V237.5H218.667V218.667H237.5Z" fill="black"/>
<path d="M312.832 218.666H331.665V237.499H312.832V218.666Z" fill="black"/>
<path d="M237.5 218.666H294V237.499H237.5V218.666Z" fill="black"/>
<path d="M312.831 162.166H293.997V180.999H275.164V199.833H293.997V218.666H312.831V199.833H331.664V180.999H312.831V162.166Z" fill="black"/>
<path d="M218.664 237.5H237.497V294H218.664V237.5Z" fill="black"/>
<path d="M162.164 293.999H180.997V275.166H199.831V256.333H180.997V218.666H162.164V293.999Z" fill="black"/>
</g>
<defs>
<filter id="filter0_d_577_365" x="68" y="68" width="275.664" height="272.667" filterUnits="userSpaceOnUse" color-interpolation-filters="sRGB">
<feFlood flood-opacity="0" result="BackgroundImageFix"/>
<feColorMatrix in="SourceAlpha" type="matrix" values="0 0 0 0 0 0 0 0 0 0 0 0 0 0 0 0 0 0 127 0" result="hardAlpha"/>
<feOffset dx="12" dy="9"/>
<feComposite in2="hardAlpha" operator="out"/>
<feColorMatrix type="matrix" values="0 0 0 0 0.862745 0 0 0 0 0.176471 0 0 0 0 0.490196 0 0 0 1 0"/>
<feBlend mode="normal" in2="BackgroundImageFix" result="effect1_dropShadow_577_365"/>
<feBlend mode="normal" in="SourceGraphic" in2="effect1_dropShadow_577_365" result="shape"/>
</filter>
</defs>
</svg>
