<svg width="276" height="273" viewBox="0 0 276 273" fill="none" xmlns="http://www.w3.org/2000/svg">
<g filter="url(#filter0_d_577_342)">
<path d="M15.0667 0C11.0707 0 7.23847 1.58738 4.41293 4.41293C1.58738 7.23847 0 11.0707 0 15.0667V75.3333H75.3333V0H15.0667ZM56.5 56.5H18.8333V18.8333H56.5V56.5Z" fill="black"/>
<path d="M0 248.6C0 252.596 1.58738 256.428 4.41293 259.253C7.23847 262.079 11.0707 263.666 15.0667 263.666H75.3333V188.333H0V248.6ZM18.8333 207.166H56.5V244.833H18.8333V207.166Z" fill="black"/>
<path d="M188.332 263.666H248.599C252.595 263.666 256.427 262.079 259.252 259.253C262.078 256.428 263.665 252.596 263.665 248.6V188.333H188.332V263.666ZM207.165 207.166H244.832V244.833H207.165V207.166Z" fill="black"/>
<path d="M248.599 0H188.332V75.3333H263.665V15.0667C263.665 11.0707 262.078 7.23847 259.252 4.41293C256.427 1.58738 252.595 0 248.599 0V0ZM244.832 56.5H207.165V18.8333H244.832V56.5Z" fill="black"/>
<path d="M150.667 56.4993V37.666H113V75.3327H131.833V56.4993H150.667Z" fill="black"/>
<path d="M75.332 75.333H94.1654V94.1663H75.332V75.333Z" fill="black"/>
<path d="M94.1641 94.166H131.831V112.999H94.1641V94.166Z" fill="black"/>
<path d="M150.664 18.8333V37.6667H169.497V0H94.1641V37.6667H112.997V18.8333H150.664Z" fill="black"/>
<path d="M0 94.166H18.8333V131.833H0V94.166Z" fill="black"/>
<path d="M75.3333 112.999V131.833H56.5V94.166H37.6667V131.833H18.8333V150.666H0V169.499H37.6667V150.666H56.5V169.499H75.3333V150.666H94.1667V112.999H75.3333Z" fill="black"/>
<path d="M150.665 113H169.499V131.833H188.332V113H207.165V94.1667H169.499V56.5H150.665V75.3333H131.832V94.1667H150.665V113Z" fill="black"/>
<path d="M131.831 244.833H94.1641V263.667H169.497V244.833H150.664V226H131.831V244.833Z" fill="black"/>
<path d="M169.5 150.667V131.833H150.667V113H131.833V131.833H113V150.667H131.833V169.5H150.667V150.667H169.5Z" fill="black"/>
<path d="M244.832 150.666H263.665V169.499H244.832V150.666Z" fill="black"/>
<path d="M169.5 150.666H226V169.499H169.5V150.666Z" fill="black"/>
<path d="M244.831 94.166H225.997V112.999H207.164V131.833H225.997V150.666H244.831V131.833H263.664V112.999H244.831V94.166Z" fill="black"/>
<path d="M150.664 169.5H169.497V226H150.664V169.5Z" fill="black"/>
<path d="M94.1641 225.999H112.997V207.166H131.831V188.333H112.997V150.666H94.1641V225.999Z" fill="black"/>
</g>
<defs>
<filter id="filter0_d_577_342" x="0" y="0" width="275.664" height="272.667" filterUnits="userSpaceOnUse" color-interpolation-filters="sRGB">
<feFlood flood-opacity="0" result="BackgroundImageFix"/>
<feColorMatrix in="SourceAlpha" type="matrix" values="0 0 0 0 0 0 0 0 0 0 0 0 0 0 0 0 0 0 127 0" result="hardAlpha"/>
<feOffset dx="12" dy="9"/>
<feComposite in2="hardAlpha" operator="out"/>
<feColorMatrix type="matrix" values="0 0 0 0 0.862745 0 0 0 0 0.176471 0 0 0 0 0.490196 0 0 0 1 0"/>
<feBlend mode="normal" in2="BackgroundImageFix" result="effect1_dropShadow_577_342"/>
<feBlend mode="normal" in="SourceGraphic" in2="effect1_dropShadow_577_342" result="shape"/>
</filter>
</defs>
</svg>
